<svg width="119" height="113" viewBox="0 0 119 113" fill="none" xmlns="http://www.w3.org/2000/svg">
<path fill-rule="evenodd" clip-rule="evenodd" d="M79.091 19.7037C82.8152 21.7504 86.3091 24.3571 89.4671 27.5238C103.971 42.1117 106.658 64.1336 97.482 81.4538L86.6067 77.9106C94.6888 64.5971 92.9994 46.9873 81.5578 35.4791C79.9836 33.8958 78.2847 32.4959 76.4993 31.2794C78.1695 28.1706 79.1198 24.6275 79.1198 20.8525C79.1198 20.4664 79.1198 20.0898 79.091 19.7133M78.5726 100.406C61.3814 109.529 39.5925 106.787 25.1273 92.2475C7.36022 74.3771 7.31222 45.375 25.0889 27.5045C28.2565 24.3185 31.76 21.7118 35.5035 19.665C35.4843 20.0609 35.4747 20.4567 35.4747 20.8622C35.4747 24.6178 36.4153 28.161 38.0759 31.2601C36.2906 32.4669 34.5916 33.8668 33.0078 35.4598C19.6273 48.9664 19.6369 70.8242 33.0462 84.3019C44.4398 95.7618 61.8614 97.4899 75.0787 89.4767L78.5918 100.406H78.5726Z" fill="white"/>
<path fill-rule="evenodd" clip-rule="evenodd" d="M70.9033 38.0091C78.1406 42.5949 82.9688 50.6951 82.9688 59.8765C82.9688 74.0782 71.412 85.7023 57.2924 85.7023C43.1727 85.7023 31.616 74.0782 31.616 59.8765C31.616 50.6951 36.4537 42.5853 43.6815 38.0091C46.0619 39.9206 48.836 41.3399 51.8691 42.1219L55.2575 47.9146L51.2548 70.9309L57.2348 76.9456L63.3203 70.8247L59.3369 47.9146L62.7252 42.1122C65.7488 41.3302 68.5228 39.911 70.8937 38.0091M96.6373 94.8547L105.065 103.544C106.341 104.857 106.303 106.971 104.998 108.246C103.692 109.53 101.59 109.491 100.323 108.178L91.9435 99.5468C91.0412 100.976 90.2253 102.713 89.3231 104.915C88.6128 106.643 86.1939 106.961 85.4164 104.876C83.1127 97.7125 80.8955 90.8481 78.6014 83.6459C78.1406 82.1784 79.3117 81.0102 80.7611 81.4736C87.9217 83.781 94.7463 86.0209 101.878 88.3283C103.942 89.1103 103.635 91.5529 101.907 92.2577C99.7568 93.1459 98.0482 93.9569 96.6276 94.8451L96.6373 94.8547ZM57.302 4.81689C66.1039 4.81689 73.2357 11.9902 73.2357 20.8434C73.2357 29.6965 66.1039 36.8698 57.302 36.8698C48.5 36.8698 41.3682 29.6869 41.3682 20.8434C41.3682 11.9998 48.5 4.81689 57.302 4.81689Z" fill="#0EA4FF"/>
</svg>
